<svg fill="#00E6FF" id="Layer_1" height="512" viewBox="0 0 24 24" width="512" xmlns="http://www.w3.org/2000/svg"><path d="m12 2c-5.5141602 0-10 4.4858398-10 10 0 5.5136719 4.4858398 10 10 10 5.5136719 0 10-4.4863281 10-10 0-5.5141602-4.4863281-10-10-10zm0 18c-4.4111328 0-8-3.5888672-8-8s3.5888672-8 8-8 8 3.5888672 8 8-3.5888672 8-8 8zm2.7070313-8.7070312c.390625.390625.390625 1.0234375 0 1.4140625l-4 4c-.1953125.1953125-.4511719.2929687-.7070313.2929687s-.5117188-.0976563-.7070313-.2929688c-.390625-.390625-.390625-1.0234375 0-1.4140625l3.2929688-3.2929687-3.2929687-3.2929687c-.390625-.390625-.390625-1.0234375 0-1.4140625s1.0234375-.390625 1.4140625 0z"/></svg>