<svg id="solid" height="512" viewBox="0 0 64 64" width="512" xmlns="http://www.w3.org/2000/svg"><path d="m26 6h8v3h-8z"/><path d="m41.9931 31.6666c-2.499 0-2.499-2.6666-4.998-2.6666s-2.4991 2.6666-4.9981 2.6666-2.4997-2.6666-4.9994-2.6666-2.4983 2.6666-4.9966 2.6666c-2.5005 0-2.5005-2.6666-5.001-2.6666-2.5023 0-2.5023 2.6666-5.0045 2.6666s-2.5022-2.6666-5.0044-2.6666v31h39v-30.8206c-1.5546.5921-1.8884 2.4872-3.998 2.4872z"/><path d="m51.9955 31.6666c-2.1129 0-2.4467-1.8959-4.0043-2.4876v30.821h9.0088v-31c-2.5023 0-2.5023 2.6666-5.0045 2.6666z"/><path d="m22.001 29.6665c.3242 0 .4306-.0518 1.0381-.7007a4.9689 4.9689 0 0 1 7.917-.0005c.6033.6441.7149.7 1.0339.7006a14.23 14.23 0 0 1 .3079-6.1918 13.2318 13.2318 0 0 1 4.3947-7.0451 8.6642 8.6642 0 0 0 -3.6926-2.429v-3h-6v3a8.7748 8.7748 0 0 0 -6 8.3246v6.6825c.5422.5757.67.6594 1.001.6594z"/><path d="m50.9521 28.9648c.584.6231.7012.7017 1.043.7017s.46-.0786 1.0449-.7021c.2044-.218.4426-.4664.719-.7122.87-4.4557-.681-8.5274-3.6775-9.33a4.5415 4.5415 0 0 0 -3.1948.395 4.6768 4.6768 0 0 1 1.4082-2.6625 3.3284 3.3284 0 0 1 2.6875-.6055 1 1 0 1 0 .27-1.9814 5.2766 5.2766 0 0 0 -4.2247 1.04 6.6106 6.6106 0 0 0 -2.082 3.7149 4.5538 4.5538 0 0 0 -2.5912-1.9705c-3.2008-.8577-6.8384 2.3392-8.1249 7.14a12.6762 12.6762 0 0 0 -.4165 4.2131 4.6279 4.6279 0 0 1 3.182-1.2053 5.0913 5.0913 0 0 1 3.958 1.9658c.6084.6489.7149.7007 1.04.7007s.4316-.0518 1.04-.7007a4.9712 4.9712 0 0 1 7.9189-.001z"/><path d="m10.9521 28.9648c.584.6231.7012.7017 1.043.7017s.46-.0786 1.0449-.7021a5.0947 5.0947 0 0 1 3.96-1.9644 4.6909 4.6909 0 0 1 2 .4214v-5.0967a10.7309 10.7309 0 0 1 1.2744-5.0356c-3.3066-8.451-7.4216-13.9897-10.3044-13.2173-3.5737.9576-3.95 11.2489-.9693 23.3539a6.304 6.304 0 0 1 1.9514 1.5391zm5.5411-11.42a1 1 0 0 1 .6269 1.2676l-2.3115 6.8305a1 1 0 1 1 -1.8945-.6406l2.3115-6.8306a1.0008 1.0008 0 0 1 1.2676-.627zm-5.9082-.2356 2.31-6.8306a1 1 0 0 1 1.8945.6406l-2.3095 6.8308a1 1 0 1 1 -1.8945-.6406z"/></svg>