<svg id="Capa_1" enable-background="new 0 0 512 512" height="512" viewBox="0 0 512 512" width="512" xmlns="http://www.w3.org/2000/svg"><g><path d="m256 241.001c-24.813 0-45 20.187-45 45s20.187 45 45 45 45-20.187 45-45-20.187-45-45-45z"/><path d="m495.151 151.116c-38.9 4.833-79.128 9.83-238.385-.088-79.601-4.958-161.911-10.083-243.619.088l-13.147 1.637v270.458l16.853-2.098c38.805-4.831 78.93-9.825 238.048.083 45.99 2.864 92.883 5.784 140.066 5.784 34.552 0 69.26-1.566 103.882-5.867l13.151-1.633v-270.457zm-335.641 79.853c-33.089-1.081-62.128-.972-88.776.333l-1.468-29.964c27.471-1.346 57.311-1.461 91.224-.354zm96.49 130.032c-41.355 0-75-33.645-75-75s33.645-75 75-75 75 33.645 75 75-33.645 75-75 75zm139.178 10.996c-13.829 0-28.33-.25-43.668-.751l.979-29.984c33.09 1.082 62.129.972 88.776-.333l1.468 29.964c-15.046.736-30.807 1.104-47.555 1.104z"/><path d="m258.63 121.086c61.187 3.811 108.688 5.663 145.217 5.663 35.066 0 55.606-1.66 73.797-3.737v-35.038l-16.849 2.093c-67.648 8.404-136.967 4.086-204.004-.087-68.352-4.257-139.03-8.658-209.288.088l-13.147 1.637v26.982c25.701-2.306 52.919-3.436 82.513-3.436 48.047-.002 95.687 2.965 141.761 5.835z"/></g></svg>