<svg height="512pt" viewBox="0 -13 512.00015 512" width="512pt" xmlns="http://www.w3.org/2000/svg"><path d="m0 337.730469v133.652343c0 8.382813 6.792969 15.167969 15.167969 15.167969h62.140625v-163.988281h-62.140625c-8.375 0-15.167969 6.792969-15.167969 15.167969zm0 0"/><path d="m332.707031 257.730469c0 8.816406-7.144531 15.960937-15.960937 15.960937-8.8125 0-15.957032-7.144531-15.957032-15.960937 0-8.8125 7.144532-15.957031 15.957032-15.957031 8.816406 0 15.960937 7.144531 15.960937 15.957031zm0 0"/><path d="m46.621094 216.90625h71.664062v66.589844c-.152344.050781-.300781.097656-.453125.148437 7.917969-2.535156 16.785157-3.890625 26.410157-3.890625 11.382812 1.566406 61.109374-8.140625 82.898437 27.886719 3.609375 5.964844 9.683594 9.523437 16.238281 9.523437h50.53125c31.3125 0 53.902344 31.078126 43.558594 60.847657 32.554688-3.601563 49.816406-16.289063 81.402344-29.34375v-131.761719h71.65625c14.132812 0 20.5625-17.683594 9.753906-26.773438l-81.410156-68.441406v-106.515625c0-8.382812-6.796875-15.1679685-15.167969-15.1679685h-59.066406c-8.382813 0-15.167969 6.7851565-15.167969 15.1679685v31.371094l-51.136719-42.992187c-5.632812-4.738282-13.875-4.738282-19.515625 0l-221.953125 186.578124c-10.789062 9.066407-4.378906 26.773438 9.757813 26.773438zm316.421875 40.816406c.015625 25.507813-20.632813 46.285156-46.285157 46.285156-25.511718.011719-46.285156-20.632812-46.285156-46.285156 0-25.527344 20.761719-46.285156 46.285156-46.285156 25.609376 0 46.300782 20.746094 46.285157 46.285156zm-56.867188-107.226562c5.925781-5.925782 15.53125-5.925782 21.453125 0 5.925782 5.925781 5.925782 15.53125 0 21.457031l-96.65625 96.648437c-5.925781 5.925782-15.511718 5.933594-21.445312 0-5.925782-5.914062-5.925782-15.519531 0-21.445312zm-85.75-35.40625c25.582031 0 46.316407 20.734375 46.316407 46.316406s-20.734376 46.316406-46.316407 46.316406-46.316406-20.734375-46.316406-46.316406 20.734375-46.316406 46.316406-46.316406zm0 0"/><path d="m501.210938 344.765625-110.207032 49.765625c-21.929687 9.746094-45.125 14.660156-69.023437 14.660156h-114.445313c-8.371094 0-15.167968-6.785156-15.167968-15.164062 0-8.375 6.796874-15.167969 15.167968-15.167969h86.375c8.664063 0 15.683594-7.058594 15.683594-15.683594 0-8.644531-7.039062-15.679687-15.683594-15.679687h-50.53125c-17.261718 0-33.035156-9.027344-42.183594-24.15625-10.300781-17.007813-38.859374-12.632813-56.953124-13.253906-11.003907 0-36.601563 2.6875-36.601563 27.644531v148.839843h205.371094c30.007812 0 59.570312-7.988281 85.503906-23.09375l92.332031-53.789062c23.441406-13.65625 28.140625-45.078125 10.363282-64.921875zm0 0"/><path d="m218.316406 177.191406c10.433594 1.316406 19.210938-7.457031 17.894532-17.894531-.894532-7.109375-6.636719-12.847656-13.746094-13.746094-10.433594-1.3125-19.207032 7.460938-17.894532 17.894531.894532 7.109376 6.636719 12.851563 13.746094 13.746094zm0 0"/></svg>