<svg id="approve" height="512" viewBox="0 0 32 32" width="512" xmlns="http://www.w3.org/2000/svg"><path d="m24.5305 4.2652v.2666h-4.5318v-4.5318h.1705z"/><path d="m19.1989 6.1313c-.4372 0-.7997-.3626-.7997-.7997v-5.3316h-16.2612c-.5865 0-1.0663.4799-1.0663 1.0663v29.8567c0 .5865.4799 1.0663 1.0663 1.0663h17.5941c-1.1729-.8744-2.09-2.0793-2.6338-3.4655h-11.7614c-.4372 0-.7997-.3626-.7997-.7997s.3626-.7997.7997-.7997h11.3242c-.0746-.4266-.128-.8744-.128-1.3222 0-.4585.0426-.9064.1173-1.3436h-11.3135c-.4372 0-.7997-.3626-.7997-.7997s.3626-.7997.7997-.7997h11.7614c.4051-1.0023.9917-1.9087 1.738-2.6658h-13.4994c-.4372 0-.7997-.3626-.7997-.7997s.3626-.7997.7997-.7997h14.9284c.1813 0 .3412.0746.4692.1706 1.1303-.6077 2.4205-.9596 3.7961-.9596v-11.4737h-5.3316zm-6.5151 2.6125.6184.1493c1.1623.2985 1.9727 1.3329 1.9727 2.5378v.2666c0 1.0877-.7038 1.9941-1.6741 2.3352v.7145c0 .4372-.3626.7997-.7997.7997s-.7997-.3626-.7997-.7997v-.7145c-.9703-.3412-1.6741-1.2476-1.6741-2.3352 0-.4478.3519-.7997.7997-.7997.4372 0 .7997.3519.7997.7997 0 .4799.3945.8744.8744.8744s.8744-.3945.8744-.8744v-.2666c0-.4691-.3092-.8637-.7571-.981l-.6184-.1493c-1.1623-.2985-1.9727-1.3329-1.9727-2.5378v-.2666c0-1.0877.7038-1.9941 1.6741-2.3352v-.7145c0-.4372.3626-.7997.7997-.7997s.7997.3626.7997.7997v.7145c.9703.3412 1.6741 1.2476 1.6741 2.3352 0 .4478-.3519.7997-.7997.7997-.4372 0-.7997-.3519-.7997-.7997 0-.4799-.3945-.8744-.8744-.8744s-.8744.3945-.8744.8744v.2666c0 .4691.3092.8637.7571.981z"/><path d="m24.53 19.2c-3.53 0-6.4 2.87-6.4 6.4s2.87 6.4 6.4 6.4 6.4-2.87 6.4-6.4-2.87-6.4-6.4-6.4zm2.92 5.41-3.05 3.04c-.14.15-.33.22-.53.22-.19 0-.38-.07-.53-.22l-1.73-1.73c-.29-.29-.29-.77 0-1.06s.77-.29 1.06 0l1.2 1.2 2.52-2.51c.29-.3.77-.3 1.06 0 .29.29.29.77 0 1.06z"/></svg>