<svg id="Layer_1" enable-background="new 0 0 300 300" height="512" viewBox="0 0 300 300" width="512" xmlns="http://www.w3.org/2000/svg"><path clip-rule="evenodd" d="m241.2 52-75.5 75.4v160.6h-15.5-.1-15.5v-160.6l-75.5-75.4h-13.1v-13.5h104.1.1 104.1v13.5zm-91 0h-77l61.4 61.3v-43.8h15.5.1 15.5v43.8l61.4-61.3zm90.4-21.7h-15v-9.7h.1c.5-3.8 3.7-6.7 7.6-6.7 4.2 0 7.4 3.4 7.4 7.7 0 .8.1 1.5-.1 2.2zm-30 0h-15v-9.7h.1c.5-3.8 3.7-6.7 7.6-6.7 4.2 0 7.4 3.4 7.4 7.7 0 .8.1 1.5-.1 2.2zm-120.9-6.4c-.2-.7-.1-1.5-.1-2.2 0-4.2 3.2-7.7 7.4-7.7 3.9 0 7.1 2.9 7.6 6.7h.1v9.7h-15zm-30 0c-.2-.7-.1-1.5-.1-2.2 0-4.2 3.2-7.7 7.4-7.7 3.9 0 7.1 2.9 7.6 6.7h.1v9.7h-15zm61 142.4h-41.4v-13.7h41.3zm0 41.4h-41.4v-35h41.3zm100.2-41.4h-41.3v-13.7h41.3zm0 41.4h-41.3v-35h41.3z" fill-rule="evenodd"/></svg>