<svg id="Layer_1" enable-background="new 0 0 25 25" height="512" viewBox="0 0 25 25" width="512" xmlns="http://www.w3.org/2000/svg"><g><path d="m8.9 19.4c0-1.1-.9-2-2-2s-2 .9-2 2 .9 2 2 2 2-.9 2-2z"/><path d="m.5 17.5c0 1.1.9 2 2 2h.4v-.1c0-2.2 1.8-4 4-4s4 1.8 4 4v.1h4.4v-.1c0-2.2 1.8-4 4-4s4 1.8 4 4c.7-.3 1.1-.9 1.1-1.7v-5.6c0-.3-.1-.6-.3-.9l-2.2-3.7c-.3-.5-.9-.9-1.5-.9h-2.9v-1c0-1.1-.9-2-2-2h-13c-1.1 0-2 .9-2 2zm17.2-7.9c0-.6.4-1 1-1h1.2c.4 0 .7.2.9.5l1.7 2.8c.2.3.2.7 0 1s-.5.5-.9.5h-2.8c-.6 0-1-.4-1-1v-2.8z"/><path d="m21.4 19.4c0-1.1-.9-2-2-2s-2 .9-2 2 .9 2 2 2 2-.9 2-2z"/></g></svg>