<svg id="Layer_1" enable-background="new 0 0 468 468" height="512" viewBox="0 0 468 468" width="512" xmlns="http://www.w3.org/2000/svg"><g><g><path d="m165.914 59.554v-46.905c0-6.986-5.654-12.649-12.629-12.649s-12.629 5.663-12.629 12.649v46.905z"/><path d="m350.404 59.554v-46.905c0-6.986-5.654-12.649-12.628-12.649-6.975 0-12.629 5.663-12.629 12.649v46.905z"/><path d="m258.159 59.554v-46.905c0-6.986-5.654-12.649-12.629-12.649s-12.629 5.663-12.629 12.649v46.905z"/><path d="m73.669 59.554v-46.905c0-6.986-5.654-12.649-12.628-12.649s-12.629 5.663-12.629 12.649v46.905z"/><path d="m371.083 59.452h-343.35c-8.137 0-14.733 6.607-14.733 14.757v51.419h372.816v-51.419c0-8.15-6.596-14.757-14.733-14.757zm-297.414 19.333c0 6.985-5.654 12.649-12.629 12.649s-12.629-5.663-12.629-12.649v-17.65h25.257v17.65zm92.245 0c0 6.985-5.654 12.649-12.629 12.649s-12.629-5.663-12.629-12.649v-17.65h25.257v17.65zm92.245 0c0 6.985-5.654 12.649-12.629 12.649s-12.629-5.663-12.629-12.649v-17.65h25.257v17.65zm92.245 0c0 6.985-5.654 12.649-12.629 12.649s-12.629-5.663-12.629-12.649v-17.65h25.257v17.65z"/></g><g><path d="m13 150.925v233.024c0 8.15 6.596 14.757 14.733 14.757h196.085c-3.395-11.75-5.107-23.927-5.107-36.39 0-25.039 7.056-48.457 19.274-68.372h-4.4c-6.953 0-12.918-5.448-13.045-12.411-.13-7.094 5.573-12.887 12.626-12.887h15.885c2.591 0 4.997.784 7.001 2.124 23.756-24.317 56.861-39.436 93.431-39.436 12.442 0 24.602 1.716 36.332 5.115v-85.525h-372.815zm136.764 53.758h15.885c6.975 0 12.629 5.663 12.629 12.649s-5.654 12.649-12.629 12.649h-15.885c-6.975 0-12.629-5.663-12.629-12.649s5.655-12.649 12.629-12.649zm-67.517 153.225h-15.885c-6.975 0-12.629-5.663-12.629-12.649s5.654-12.649 12.629-12.649h15.885c6.975 0 12.629 5.663 12.629 12.649s-5.654 12.649-12.629 12.649zm0-63.964h-15.885c-6.975 0-12.629-5.663-12.629-12.649s5.654-12.649 12.629-12.649h15.885c6.975 0 12.629 5.663 12.629 12.649s-5.654 12.649-12.629 12.649zm83.403 63.964h-15.885c-6.975 0-12.629-5.663-12.629-12.649s5.654-12.649 12.629-12.649h15.885c6.975 0 12.629 5.663 12.629 12.649s-5.655 12.649-12.629 12.649zm-7.943-56.357c-11.757 0-21.287-9.546-21.287-21.321s9.531-21.321 21.287-21.321 21.287 9.546 21.287 21.321-9.53 21.321-21.287 21.321zm91.345-71.571h-15.885c-6.975 0-12.629-5.663-12.629-12.649s5.654-12.649 12.629-12.649h15.885c6.975 0 12.629 5.663 12.629 12.649s-5.654 12.649-12.629 12.649zm83.402 0h-15.885c-6.975 0-12.629-5.663-12.629-12.649s5.654-12.649 12.629-12.649h15.885c6.975 0 12.629 5.663 12.629 12.649s-5.654 12.649-12.629 12.649z"/><path d="m349.484 256.632c-58.182 0-105.516 47.41-105.516 105.683 0 58.275 47.334 105.685 105.516 105.685s105.516-47.41 105.516-105.684-47.335-105.684-105.516-105.684zm-72.314 108.422c0-41.768 32.649-75.749 72.78-75.749 2.785 0 5.552.171 8.293.496-1.724-5.886 1.03-12.311 6.746-14.996 6.313-2.964 13.834-.243 16.795 6.082l11.994 25.621c3.038 6.485-.101 14.419-6.712 17.102l-21.35 8.889c-6.294 2.621-13.905-.553-16.509-6.826-1.552-3.74-1.168-7.794.675-11.069-26.174.038-47.457 22.654-47.457 50.449 0 6.985-5.654 12.649-12.629 12.649-6.972 0-12.626-5.663-12.626-12.648zm144.45 13.246c-6.143 36.217-36.284 62.503-71.67 62.503-9.146 0-18.099-1.793-26.436-5.177-1.36 3.671-4.386 6.665-8.44 7.797-6.53 1.825-13.733-2.237-15.557-8.786l-6.684-24.004c-2.23-7.148 2.529-14.977 9.903-16.248l23.535-4.08c6.875-1.195 13.408 3.423 14.598 10.306.864 4.999-1.338 9.809-5.237 12.531 4.59 1.544 9.414 2.363 14.318 2.363 23.027 0 42.696-17.429 46.769-41.443 1.168-6.887 7.688-11.525 14.565-10.351 6.876 1.171 11.504 7.702 10.336 14.589z"/></g></g></svg>