<svg height="512" viewBox="0 0 64 64" width="512" xmlns="http://www.w3.org/2000/svg"><g id="Bank_Check" data-name="Bank Check"><path d="m10 54.07251v-30a5 5 0 0 0 -10 0v30a5 5 0 0 1 10 0z"/><path d="m63 24.07251h-14.6l-9.69 9.68a.9716.9716 0 0 1 -.55.28l-5.6.94-2.81 2.81a1.0011 1.0011 0 0 1 -.7.29 1.02418 1.02418 0 0 1 -.71-.29 1.0079 1.0079 0 0 1 0-1.42l2.75-2.74.95-5.71a.9717.9717 0 0 1 .28-.55l3.29-3.29h-23.61v30h51a1.003 1.003 0 0 0 1-1v-28a1.003 1.003 0 0 0 -1-1zm-20 8h12a1 1 0 0 1 0 2h-12a1 1 0 0 1 0-2zm-7 4h19a1 1 0 0 1 0 2h-19a1 1 0 0 1 0-2zm-7 4h26a1 1 0 0 1 0 2h-26a1 1 0 1 1 0-2zm27 5a1.003 1.003 0 0 1 -1 1h-7a1 1 0 0 1 0-2h7a1.003 1.003 0 0 1 1 1zm4 4a1.003 1.003 0 0 1 -1 1h-42a1.003 1.003 0 0 1 -1-1v-20a1.003 1.003 0 0 1 1-1h10.97a1 1 0 0 1 0 2h-9.97v18h40v-18h-10.36a1 1 0 0 1 0-2h11.36a1.003 1.003 0 0 1 1 1zm-34.33-10.73a2.42449 2.42449 0 0 1 .67 2.67 2.95961 2.95961 0 0 1 -2.34 1.71v.35a1 1 0 0 1 -2 0v-.35a2.97876 2.97876 0 0 1 -2.5-2.8 1.0001 1.0001 0 0 1 2-.02.84775.84775 0 0 0 .5.72v-1.84a5.88374 5.88374 0 0 1 -1.67-.98 2.42439 2.42439 0 0 1 -.67-2.67 2.95967 2.95967 0 0 1 2.34-1.71v-.35a1 1 0 0 1 2 0v.35a2.97881 2.97881 0 0 1 2.5 2.8 1 1 0 0 1 -2 0 .84673.84673 0 0 0 -.5-.7v1.84a5.88516 5.88516 0 0 1 1.67.97996z"/><path d="m24 40.66248a.85961.85961 0 0 0 .48-.39c.08-.19-.08-.37-.18-.47a1.9451 1.9451 0 0 0 -.3-.21z"/><path d="m21.52 35.8725c-.08.19.08.37.18.47a1.9451 1.9451 0 0 0 .3.21v-1.07a.85943.85943 0 0 0 -.48.39z"/><path d="m33.25 32.82251 4.27-.71c10.19025-10.17761 5.53577-5.52967 21.07-21.04 0 0-.0644-.05438-3.59-3.58-4.61194 4.61188-11.57843 11.59845-21.04 21.06z"/><path d="m61 8.073-3-3-1.3 1.289 3.02 3.01z"/><path d="m35.88 16.36249a2.99364 2.99364 0 0 0 4.24 0l9.17-9.17a1.02694 1.02694 0 0 1 1.42 0l.87.88 1.42-1.42-.88-.87a3.0559 3.0559 0 0 0 -4.24 0l-9.17 9.17a1.02692 1.02692 0 0 1 -1.42 0l-.54-.54a.997.997 0 0 0 -1.41 1.41z"/><path d="m8 54a3 3 0 0 0 -6 0 5 5 0 0 0 5 5h51a1 1 0 0 0 1-1v-2h-49a2 2 0 0 1 -2-2z"/></g></svg>