<?xml version="1.0" encoding="iso-8859-1"?>
<!-- Generator: Adobe Illustrator 19.0.0, SVG Export Plug-In . SVG Version: 6.00 Build 0)  -->
<svg version="1.1" id="Capa_1" xmlns="http://www.w3.org/2000/svg" xmlns:xlink="http://www.w3.org/1999/xlink" x="0px" y="0px"
	 viewBox="0 0 512 512" style="enable-background:new 0 0 512 512;" xml:space="preserve">
<g>
	<g>
		<polygon points="255.854,335.647 21.008,512 491.001,512 		"/>
	</g>
</g>
<g>
	<g>
		<polygon points="14.671,207.228 61,237.475 61,166.69 		"/>
	</g>
</g>
<g>
	<g>
		<polygon points="330.658,352.5 512,488.509 512,234.123 		"/>
	</g>
</g>
<g>
	<g>
		<polygon points="0,234.121 0,488.502 181.208,352.429 		"/>
	</g>
</g>
<g>
	<g>
		<polygon points="451,166.632 451,237.473 497.333,207.228 		"/>
	</g>
</g>
<g>
	<g>
		<path d="M91,0c0,152.356,0,98.907,0,257.06l116.724,76.208l48.117-36.13l48.283,36.213L421,257.057c0-159.6,0-104.095,0-257.057
			H91z M256,151c24.814,0,45,20.186,45,45c0,19.53-12.578,36.024-30,42.237V271h-30v-32.763c-17.422-6.213-30-22.707-30-42.237h30
			c0,8.276,6.724,15,15,15s15-6.724,15-15s-6.724-15-15-15c-24.814,0-45-20.186-45-45c0-19.53,12.578-36.024,30-42.237V61h30v32.763
			c17.422,6.213,30,22.707,30,42.237h-30c0-8.276-6.724-15-15-15s-15,6.724-15,15S247.724,151,256,151z"/>
	</g>
</g>
<g>
</g>
<g>
</g>
<g>
</g>
<g>
</g>
<g>
</g>
<g>
</g>
<g>
</g>
<g>
</g>
<g>
</g>
<g>
</g>
<g>
</g>
<g>
</g>
<g>
</g>
<g>
</g>
<g>
</g>
</svg>
