<svg id="Capa_1" enable-background="new 0 0 512 512" height="512" viewBox="0 0 512 512" width="512" xmlns="http://www.w3.org/2000/svg"><g><path d="m361 104.638c0-41.983-25.796-73.638-60-73.638-20.42 0-35.376 9.492-45 18.545-9.624-9.053-24.58-18.545-45-18.545-34.204 0-60 31.655-60 73.638 0 43.989 29.663 85.166 96.182 133.491l8.818 6.416 8.818-6.416c66.519-48.325 96.182-89.502 96.182-133.491z"/><path d="m449.632 198.021c-8.287 129.716-63.926 159.897-66.923 161.396l-13.682-26.704c.487-.267 31.467-18.909 45.306-91.161-71.158 5.931-129.401 61.522-137.943 133.964-3.574 30.425-5.39 60.865-5.39 90.484v15h120v-15c0-14.443 10.723-24.404 31.274-42.202 35.332-30.586 89.726-76.831 89.726-197.798v-75s-15.337 0-15.505.002c-24.868.166-45.277 22.201-46.863 47.019z"/><path d="m89.726 423.798c20.551 17.798 31.274 27.759 31.274 42.202v15h120v-15c0-29.619-1.816-60.059-5.391-90.483-8.542-72.442-66.784-128.033-137.943-133.964 13.839 72.252 44.819 90.894 45.306 91.161l-13.682 26.704c-2.997-1.5-58.636-31.681-66.923-161.396-1.586-24.818-20.995-46.853-45.862-47.02-.168-.002-16.505-.002-16.505-.002v75c0 120.967 54.394 167.212 89.726 197.798z"/></g></svg>