<svg height="512" viewBox="0 0 512 512" width="512" xmlns="http://www.w3.org/2000/svg"><g id="solid"><circle cx="392" cy="288" r="16"/><circle cx="472" cy="240" r="8"/><circle cx="392" cy="176" r="16"/><path d="m456 384a32.036 32.036 0 0 0 -32-32h-80v64h80a32.036 32.036 0 0 0 32-32zm-59.313 8h-28.687a8 8 0 0 1 0-16h28.687a19.183 19.183 0 0 0 13.656-5.657 8 8 0 0 1 11.314 11.315 35.084 35.084 0 0 1 -24.97 10.342z"/><path d="m88 208h48v24h-48z"/><path d="m224 40h-22a2 2 0 0 0 -2 2v14h24z"/><path d="m232 112h48v16h-48z"/><path d="m240 40h32v56h-32z"/><path d="m48 328h64v96h-64z"/><path d="m289 144h-66a39.044 39.044 0 0 0 -39 39v57h88a8 8 0 0 1 8 8v128a8 8 0 0 1 -8 8h-80v74a37.775 37.775 0 0 1 -7.046 22h143.046v-297a39.044 39.044 0 0 0 -39-39zm23 296a8 8 0 0 1 -16 0v-24a8 8 0 0 1 16 0zm0-56a8 8 0 0 1 -16 0v-8a8 8 0 0 1 16 0z"/><path d="m344 480h105.754l4-16h-109.754z"/><path d="m344 432h128v16h-128z"/><path d="m154 280a26.029 26.029 0 0 1 -26-26v-6h-32v6a26.029 26.029 0 0 1 -26 26 22.025 22.025 0 0 0 -22 22v10h72a8 8 0 0 1 8 8v112a8 8 0 0 1 -8 8h-72v18a22.025 22.025 0 0 0 22 22h84a22.025 22.025 0 0 0 22-22v-156a22.025 22.025 0 0 0 -22-22z"/><path d="m192 368h72v-112h-80v22.718a37.8 37.8 0 0 1 8 23.282z"/></g></svg>