<svg id="Capa_1" enable-background="new 0 0 609.619 609.619" height="512" viewBox="0 0 609.619 609.619" width="512" xmlns="http://www.w3.org/2000/svg"><g><g id="Layer_14"><g><path d="m201.742 45.824c-4.788 1.938-9.119 4.674-12.995 8.093 2.85 23.14 14.363 44.456 32.031 58.591 1.14.912 2.736 1.482 4.218 1.482 3.762 0 6.839-3.078 6.725-6.953 0-2.052-.912-3.876-2.394-5.13-16.414-13.223-26.559-33.969-27.585-56.083z"/><path d="m263.752 163.918h85.265v15.959h-85.265z"/><path d="m252.125 7.295h22.912v14.591h-22.912z"/><path d="m74.073 71.016h87.544c8.093-25.192 31.347-42.176 57.793-42.29h19.036v-28.27-.456h-130.632c-25.99 0-47.078 21.088-47.078 47.078v23.938z"/><path d="m358.478 150.239v-55.627h-103.959v55.627h2.394 98.943z"/><path d="m524.562 377.991c-2.964-2.85-16.301-8.321-39.668-8.321s-36.705 5.472-39.669 8.321c2.964 2.85 16.301 8.321 39.669 8.321s36.704-5.471 39.668-8.321z"/><path d="m238.219 516.147h133.824v-134.85c0-.684 0-1.368.114-2.052-9.005-12.995-22.912-31.347-44.114-57.451-26.104-31.917-52.435-62.011-59.959-70.56-30.777 1.596-55.057 26.902-55.285 57.793.912 6.839 9.461 75.917 9.461 100.311 0 19.834-8.435 75.347-9.461 81.845.228 13.907 11.513 24.964 25.42 24.964z"/><path d="m80.001 84.695-13.223 102.249h90.052l-13.223-102.249h-11.171v85.037c0 3.762-3.078 6.839-6.839 6.839s-6.839-3.078-6.839-6.839v-85.037h-16.073v85.037c0 3.762-3.078 6.839-6.839 6.839-3.762 0-6.839-3.078-6.839-6.839v-85.037z"/><path d="m412.395 358.043c-11.969 4.788-20.518 10.601-24.394 16.415-.228.342-.456.684-.57 1.026-.114 0-.114 0-.114.114-.114.342-.342.57-.456.912h-.114l-.342 1.026h-.114l-.342 1.14v.228c-.114.228-.114.57-.114.798 0 .114-.114.228-.114.342v1.026c.114 2.508.912 4.788 2.28 6.839 3.876 5.814 12.425 11.627 24.394 16.415 4.56 1.71 9.233 3.306 13.907 4.56 4.332 1.14 8.777 2.28 13.565 3.078 14.819 2.85 29.865 4.218 45.026 4.104 19.834 0 38.757-2.166 54.943-6.269l39.555-18.922c.912-.912 1.71-1.938 2.394-2.964 3.078-4.104 3.078-9.575 0-13.679-3.876-5.813-12.425-11.627-24.394-16.415-19.264-7.637-45.026-11.741-72.498-11.741-13.337 0-26.674 1.026-39.897 3.078-4.902.798-9.575 1.824-14.021 2.85-6.383 1.593-12.538 3.531-18.58 6.039zm72.498-2.052c26.674 0 53.689 6.725 53.689 22s-27.016 22-53.689 22c-26.674 0-53.689-6.839-53.689-22s27.015-22 53.689-22z"/><path d="m484.893 429.97c-15.047 0-30.207-1.254-45.026-3.762-4.788-.798-9.461-1.824-13.793-2.964-17.098-4.332-31.005-10.487-40.352-18.01v145.109c0 7.523 9.005 15.731 24.394 22.228l2.28.912c5.472 2.166 11.171 3.99 16.871 5.358 14.705 3.648 29.751 5.813 44.912 6.269v-139.295c0-2.622 1.482-5.016 3.876-6.155l20.974-10.031c-4.675.227-9.348.341-14.136.341z"/><path d="m487.857 450.147v159.472l25.306-12.083 70.902-33.969v-158.332c-9.347 7.523-23.14 13.679-40.01 18.01z"/><path d="m402.25 317.234c1.824-.342 3.192-1.938 3.306-3.762.798-7.979 1.254-15.845 1.254-23.596 0-19.606-3.306-37.959-15.275-51.523-11.969-13.565-30.321-20.176-56.539-20.86-1.14-.114-2.28.342-3.078 1.14-.57.57-1.026 1.254-1.254 2.052 2.508 5.13 15.389 24.28 34.197 49.586s32.83 42.746 37.389 46.963z"/><path d="m158.084 533.929c.114-.798 13.223-86.062 13.223-113.99 0-34.425-13.109-139.182-13.223-140.322-.114-.228-.114-.57-.114-.798 0-14.933 3.42-29.637 9.917-42.974l-8.663-35.223h-94.612l-11.171 57.793-27.7 271.866c-1.14 10.487 2.28 20.974 9.347 28.726 7.067 7.865 17.099 12.311 27.586 12.311h110c-9.461-9.689-14.705-22.798-14.705-36.363.001-.342.001-.684.115-1.026z"/><path d="m372.043 550.344v-20.518h-133.824c-21.544-.114-38.985-17.554-39.099-39.099 0-.342 0-.684.114-1.026.114-.57 9.347-60.757 9.347-80.363 0-24.28-9.347-98.259-9.347-99.057-.114-.228-.114-.57-.114-.798.114-39.669 32.259-71.814 71.928-71.928 1.938 0 3.876.798 5.13 2.28.342.342 31.575 35.565 62.467 73.296 17.782 21.772 30.549 38.415 39.783 51.296 9.461-11.741 28.725-21.202 54.031-26.674 3.078-29.295 6.383-55.285 6.839-59.389-.342-46.85-38.187-84.581-85.037-84.809h-97.461c-31.005 0-59.503 16.871-74.436 44-3.99 7.181-6.953 14.933-8.663 22.912-1.368 5.927-2.052 11.855-2.052 17.896 1.14 8.435 13.337 107.037 13.337 141.576 0 28.042-12.083 107.493-13.337 115.586.228 13.109 7.067 25.306 18.124 32.259 5.016 3.192 10.601 5.13 16.415 5.813l4.332.228h174.633c-8.436-6.953-13.11-14.932-13.11-23.481zm-55.171-329.203c.114-4.788 2.166-9.347 5.699-12.539 3.42-3.306 7.979-5.016 12.767-4.788 30.207.798 51.979 9.233 66.342 25.534 20.176 22.684 20.404 54.487 17.554 85.379-.912 9.233-8.663 16.301-17.896 16.301h-1.71c-3.306-.342-7.409-.684-45.482-51.979-9.575-12.881-18.466-25.306-25.078-35.109-12.31-18.354-12.31-20.406-12.196-22.799z"/></g></g></g></svg>