<svg height="512" viewBox="0 0 56 56" width="512" xmlns="http://www.w3.org/2000/svg"><g id="Page-1" fill="none" fill-rule="evenodd"><g id="010---Cleaning-Products" fill="rgb(0,0,0)" fill-rule="nonzero"><rect id="Rectangle-path" height="18" rx="1" width="9" x="7" y="22"/><path id="Shape" d="m18 23v4h8v-5c0-.5522847.4477153-1 1-1s1 .4477153 1 1v5h2.000093l-.000093-6c.0190016-3.7186205-2.8768039-6.8011419-6.5893626-7.0142318-3.7125588-.2130899-6.9420402 2.5178581-7.3486374 6.2142318 1.1644411.4407503 1.9356185 1.5549384 1.938 2.8z"/><path id="Shape" d="m12.34 51.134c.0911812.5456912.5971735.9218739 1.146.852.5349469-.0857644.904303-.5819343.833-1.119l-1.219-8.867h-2.014z"/><path id="Shape" d="m13 12.522v-3.522h-6v3.525c1.93910332-.6979781 4.0608967-.6979781 6 0z"/><path id="Rectangle-path" d="m44 9h2v4h-2z"/><path id="Shape" d="m26 12.522v-7.313c-1.9328318.73303835-4.0671682.73303835-6 0v7.316c1.9389862-.6986487 4.0610138-.6986487 6 0zm-4-3.522c0-.55228475.4477153-1 1-1s1 .44771525 1 1-.4477153 1-1 1-1-.44771525-1-1z"/><path id="Rectangle-path" d="m33 0h3v3h-3z"/><path id="Shape" d="m41.089 21.905c-.6179785 1.860301-1.5788736 3.5884197-2.833 5.095h13.044c-.7374719-2.422581-1.71045-4.7671065-2.905-7h-6.673z"/><path id="Shape" d="m33.553 13.145c.3382317.1723003.7453043.1353644 1.047-.095l3-2.25c.2498541-.1904768.397531-.4858307.4-.8v-5h-2v4c0 .3147573-.1481942.61114562-.4.8l-2.2 1.65c-.2510659.189471-.3990627.4854647-.4.8-.0040121.3801039.2112683.7285233.553.895z"/><path id="Shape" d="m42 16v2h6v-2c0-.5522847-.4477153-1-1-1h-4c-.5522847 0-1 .4477153-1 1z"/><path id="Shape" d="m13 6c0-1.65685425-1.3431458-3-3-3-1.65685425 0-3 1.34314575-3 3v1h6z"/><path id="Shape" d="m18 39c-.0052515 1.6083125-1.2778607 2.9263563-2.885 2.988l1.185 8.606c.1089293.788316-.100466 1.5875648-.5819333 2.2212027-.4814673.633638-1.1953881 1.0495251-1.9840667 1.1557973-.1326773.0172262-.2662254.0269085-.4.029-1.495512-.0082492-2.7594279-1.1105064-2.971-2.591l-1.294-9.409h-1.069c-1.65685425 0-3-1.3431458-3-3v-4h-2.759l4.059 18.637c.29875306 1.3749675 1.51296073 2.3575609 2.92 2.363h37.56c1.4060313-.0025607 2.6208562-.9831573 2.92-2.357l4.059-18.643h-35.759zm21.7 11.592 1.51-11c.1258512-1.0790308.825204-2.0057208 1.8283443-2.4226806 1.0031403-.4169597 2.153318-.2590353 3.0069526.4128678.8536347.6719031 1.2773378 1.7527937 1.1077031 2.8258128l-1.509 11c-.2387846 1.6287444-1.7454284 2.7608428-3.3762874 2.5369564-1.630859-.2238865-2.7766822-1.720119-2.5677126-3.3529564zm-8.987-10.737c.0798051-1.6551974 1.4863026-2.9323051 3.1415-2.8525s2.9323051 1.4863026 2.8525 3.1415l-.53 11c-.0768131 1.5984321-1.3947236 2.8551774-2.995 2.856h-.143c-.7954285-.0373009-1.5433933-.3893122-2.0791005-.9784774-.5357071-.5891653-.8151998-1.3671416-.7768995-2.1625226zm-8.567-2.855c1.651906-.0714347 3.0531533 1.2008854 3.141 2.852l.53 11c.0402352.7958982-.2378521 1.5751003-.7729056 2.1656853-.5350534.590585-1.2831006.9440166-2.0790944.9823147h-.147c-1.6018413.0018721-2.9225787-1.2550297-3-2.855l-.53-11c-.0393872-.7963854.2398847-1.5756883.7761342-2.1657879s1.2853552-.9424439 2.0818658-.9792121z"/><path id="Shape" d="m22.818 52h.055c.5497838-.0290847.9726448-.4970925.946-1.047l-.53-11c-.0147252-.2669477-.1357314-.5168831-.336-.694-.1784366-.1636556-.410899-.2558574-.653-.259h-.05c-.2663815.0106257-.5174929.1271773-.69756.3237679-.1800672.1965905-.2741817.4569434-.26144.7232321l.53 11c.0250632.53269.4637216.9519894.997.953z"/><path id="Shape" d="m55 29h-37v4h37c.5522847 0 1-.4477153 1-1v-2c0-.5522847-.4477153-1-1-1z"/><path id="Shape" d="m5 23c0-1.6568542 1.34314575-3 3-3h6.077c.1420505-1.2687565.5554029-2.492102 1.212-3.587-.106-.123-.216-.246-.337-.367-2.0023211-2.0041472-5.0152252-2.6037937-7.63231995-1.5190307s-4.32231438 3.6400307-4.31968005 6.4730307l-.00000305 6h2.00000305z"/><path id="Shape" d="m40.8 3.4 2.7 3.6h3.072l3.528-3.691c.1867751-.19540213.4446995-.30686876.715-.309h.011c.2651948.00005664.5195073.10545063.707.293l1.59 1.59c.3932.37613153 1.0128.37613153 1.406 0l1.18-1.183c.3850802-.38956633.3850802-1.01643367 0-1.406l-2-2c-.187439-.18897262-.442836-.29487775-.709-.294l-15-.00000541v3.00000541h2c.3147573 0 .6111456.14819416.8.4z"/><path id="Shape" d="m33.131 52h.051c.53407.0006156.974365-.4185453 1-.952l.53-11c.0130363-.2654609-.0801406-.525191-.2589521-.7218274s-.428546-.3140008-.6940479-.3261726h-.051c-.536129-.0058097-.9794516.4162335-1 .952l-.53 11c-.0130363.2654609.0801406.525191.2589521.7218274s.428546.3140008.6940479.3261726z"/><path id="Shape" d="m5 29h-4c-.55228475 0-1 .4477153-1 1v2c0 .5522847.44771525 1 1 1h4z"/><path id="Shape" d="m42.534 51.991c.2628424.0361485.5292764-.0336376.7406485-.1939954.2113722-.1603578.3503547-.3981414.3863515-.6610046l1.51-11c.0361331-.2629941-.0337878-.5295631-.1943542-.740963s-.3986002-.3502807-.6616458-.386037c-.0464237-.006017-.093188-.0090233-.14-.009-.2165473-.0011002-.4274223.0691915-.6.2-.2131966.160163-.3535958.3988415-.39.663l-1.509 11c-.0361485.2628424.0336376.5292764.1939954.7406485.1603578.2113722.3981414.3503547.6610046.3863515z"/></g></g></svg>