<svg id="Capa_1" enable-background="new 0 0 512 512" height="512" viewBox="0 0 512 512" width="512" xmlns="http://www.w3.org/2000/svg"><g><path d="m452 362v-161.95c0-28.15-25.43-49.71-52.41-44.46-2.55.5-5.08 1.04-7.59 1.64v129.77c0 87.334-67.119 156.981-150 164.34v15.66c0 24.81 20.19 45 45 45h97.98c-14.29-15.93-22.98-36.97-22.98-60 0-49.63 40.37-90 90-90z"/><path d="m452 392c-33.08 0-60 26.92-60 60s26.92 60 60 60 60-26.92 60-60-26.92-60-60-60zm0 75c-8.28 0-15-6.72-15-15s6.72-15 15-15 15 6.72 15 15-6.72 15-15 15z"/><path d="m217.5 362h24.5v59.18c66.421-7.233 120-63.585 120-134.18v-120.06c-66.85 27.85-113.77 91.5-119.42 165.06h-25.08c-12.406 0-22.5-10.094-22.5-22.5v-257c0-28.948-23.552-52.5-52.5-52.5s-52.5 23.552-52.5 52.5v369.5h-15c-41.36 0-75 33.64-75 75 0 8.28 6.72 15 15 15h180c8.28 0 15-6.72 15-15 0-41.36-33.64-75-75-75h-15v-369.5c0-12.406 10.094-22.5 22.5-22.5s22.5 10.094 22.5 22.5v257c0 28.948 23.552 52.5 52.5 52.5z"/></g></svg>