<svg height="512" viewBox="0 0 57 56" width="512" xmlns="http://www.w3.org/2000/svg"><g id="Page-1" fill="none" fill-rule="evenodd"><g id="026---Mopping" transform="translate(0 -1)"><g fill="rgb(0,0,0)" fill-rule="nonzero"><path id="Shape" d="m49.17 53 2.63-14h-17.595l2.625 14zm-5.17-12h3c.5522847 0 1 .4477153 1 1s-.4477153 1-1 1h-3c-.5522847 0-1-.4477153-1-1s.4477153-1 1-1zm-6 0h2c.5522847 0 1 .4477153 1 1s-.4477153 1-1 1h-2c-.5522847 0-1-.4477153-1-1s.4477153-1 1-1z"/><path id="Shape" d="m54 36c0-.5522847-.4477153-1-1-1h-20c-.5522847 0-1 .4477153-1 1s.4477153 1 1 1h20c.5522847 0 1-.4477153 1-1z"/><path id="Shape" d="m48 29c-.0049199-1.405171-.9845259-2.6186534-2.3570577-2.9197946-1.3725319-.3011412-2.7701889.3907565-3.3629423 1.6647946-.1133375.24854-.3234142.4398979-.5814226.5296154-.2580083.0897174-.5414879.069984-.7845774-.0546154-.6201815-.3186438-1.3615463-.291299-1.9565686.0721669s-.9578033 1.0105822-.9574314 1.7078331c0 .5522847-.4477153 1-1 1-1.1045695 0-2 .8954305-2 2h16c.0000138-1.100676-.8893377-1.9944966-1.99-2-.3294668.0465615-.6605126-.073802-.8831376-.3210963-.222625-.2472942-.3076648-.5891231-.2268624-.9119037.0648262-.2505664.0984144-.5081884.1-.767z"/><path id="Shape" d="m20.657 36.757 34.05-34.05c.2599566-.25107447.3642126-.62287789.2726972-.97250732-.0915155-.34962944-.3645604-.6226744-.7141899-.71418984-.3496294-.09151544-.7214328.01274058-.9725073.27269716l-34.05 34.05 1.021 1.022z"/><path id="Shape" d="m19.949 41.707c.3904653.3907414 1.0237585.3909653 1.4145.0005.3907414-.3904653.3909653-1.0237585.0005-1.4145l-5.657-5.657c-.3923789-.3789722-1.0160848-.3735524-1.4018186.0121814s-.3911536 1.0094397-.0121814 1.4018186z"/><path id="Shape" d="m55 55h-54c-.55228475 0-1 .4477153-1 1s.44771525 1 1 1h54c.5522847 0 1-.4477153 1-1s-.4477153-1-1-1z"/><path id="Shape" d="m11 53h15c0-2.209139-1.790861-4-4-4h-5c-.5522847 0-1-.4477153-1-1s.4477153-1 1-1h1.745c.1701907-.6530163.2558904-1.3251709.255-2-.0052663-.5548679-.0672554-1.1077433-.185-1.65-.0977945-.0707099-.1912932-.1471785-.28-.229l-5.656-5.657c-.0817825-.0881207-.1579333-.1813052-.228-.279-.5426389-.1174756-1.0958182-.1794612-1.651-.185-4.418278 0-8 3.581722-8 8s3.581722 8 8 8z"/></g><circle id="Oval" cx="54" cy="24" r="2" stroke="rgb(0,0,0)" stroke-linecap="round" stroke-linejoin="round" stroke-width="2"/><circle id="Oval" cx="49" cy="18" r="2" stroke="rgb(0,0,0)" stroke-linecap="round" stroke-linejoin="round" stroke-width="2"/><path id="Shape" d="m11 9c-.2651948-.00005664-.5195073-.10545063-.707-.293l-1.5-1.5c-.25995658-.25107447-.3642126-.62287789-.27269716-.97250732.09151544-.34962944.3645604-.6226744.71418984-.71418984.34962943-.09151544.72143285.01274058.97250732.27269716l1.5 1.5c.2859079.28599425.3714219.71603662.216678 1.08965456s-.5192821.61725909-.923678.61734544z" fill="rgb(0,0,0)" fill-rule="nonzero"/><path id="Shape" d="m6.5 4.5c-.26519481-.00005664-.51950727-.10545063-.707-.293l-1.5-1.5c-.37897221-.39237889-.37355237-1.01608478.01218142-1.40181858.3857338-.38573379 1.00943969-.39115363 1.40181858-.01218142l1.5 1.5c.28590792.28599425.37142191.71603662.21667798 1.08965456s-.51928208.61725909-.92367798.61734544z" fill="rgb(0,0,0)" fill-rule="nonzero"/><path id="Shape" d="m5 9c-.4043959-.00008635-.76893405-.2437275-.92367798-.61734544s-.06922994-.80366031.21667798-1.08965456l1.5-1.5c.39237889-.37897221 1.01608478-.37355237 1.40181858.01218142.38573379.3857338.39115363 1.00943969.01218142 1.40181858l-1.5 1.5c-.18749273.18754937-.44180519.29294336-.707.293z" fill="rgb(0,0,0)" fill-rule="nonzero"/><path id="Shape" d="m9.5 4.5c-.4043959-.00008635-.76893405-.2437275-.92367798-.61734544s-.06922994-.80366031.21667798-1.08965456l1.5-1.5c.2510745-.25995658.6228779-.3642126.9725073-.27269716.3496295.09151544.6226744.3645604.7141899.71418984.0915154.34962943-.0127406.72143285-.2726972.97250732l-1.5 1.5c-.1874927.18754937-.44180519.29294336-.707.293z" fill="rgb(0,0,0)" fill-rule="nonzero"/><path id="Shape" d="m30.541 10.689c-2.1120378 1.0325692-3.8194308 2.7399622-4.852 4.852-.1163103.2776811-.3879437.4584034-.689.4584034s-.5726897-.1807223-.689-.4584034c-1.0297831-2.1140255-2.7379745-3.8222169-4.852-4.852-.2776811-.1163103-.4584034-.3879437-.4584034-.689s.1807223-.57268966.4584034-.689c2.1144341-1.02920988 3.8227901-2.73756586 4.852-4.852.1163103-.27768111.3879437-.4584034.689-.4584034s.5726897.18072229.689.4584034c1.0325692 2.11203776 2.7399622 3.81943079 4.852 4.852.2776811.11631034.4584034.3879437.4584034.689s-.1807223.5726897-.4584034.689z" fill="rgb(0,0,0)" fill-rule="nonzero"/><path id="Shape" d="m8.694 22.459c-1.40809797.6885517-2.54644833 1.826902-3.235 3.235-.07911298.1831299-.25951212.3017098-.459.3017098s-.37988702-.1185799-.459-.3017098c-.68671645-1.4094074-1.82559255-2.5482835-3.235-3.235-.18312987-.079113-.30170981-.2595121-.30170981-.459s.11857994-.379887.30170981-.459c1.40940745-.6867165 2.54828355-1.8255926 3.235-3.235.07911298-.1831299.25951212-.3017098.459-.3017098s.37988702.1185799.459.3017098c.68855167 1.408098 1.82690203 2.5464483 3.235 3.235.18312987.079113.30170981.2595121.30170981.459s-.11857994.379887-.30170981.459z" fill="rgb(0,0,0)" fill-rule="nonzero"/></g></g></svg>