<svg id="Solid" height="512" viewBox="0 0 64 64" width="512" xmlns="http://www.w3.org/2000/svg"><path d="m47.8 28.6.2-.2666v-9.5022l-16 6.4-16-6.4v9.5018l.2.2666c.165.2207 4.1836 5.4 15.8 5.4s15.6348-5.1796 15.8-5.3996z"/><path d="m62.5 61h-54a5.5 5.5 0 0 1 0-11h54a1.5 1.5 0 0 0 0-3h-54a8.5 8.5 0 0 0 0 17h54a1.5 1.5 0 0 0 0-3z"/><path d="m5 55.5a3.5 3.5 0 0 0 3.5 3.5h54v-7h-54a3.5 3.5 0 0 0 -3.5 3.5z"/><circle cx="53" cy="24" r="2.5"/><path d="m48.655 16.415-17.011-6.48.712-1.87 19.04 7.254 8.296-3.319-27.692-11.077-27.692 11.077 27.692 11.077z"/><path d="m52 17.69v1.9313a4.1995 4.1995 0 0 1 2 0v-3.31l-2.6039-.9919-2.7413 1.0965z"/><path d="m9 38a2 2 0 0 0 2 2h36.6392l.6666-4h-37.3058a2 2 0 0 0 -2 2z"/><path d="m56 38-1.623-9.7382a4.0992 4.0992 0 0 1 -2.754 0l-1.623 9.7382z"/><path d="m11 45h43.5a1.5 1.5 0 0 0 0-3h-43.5a4 4 0 0 1 0-8h9.68a17.1369 17.1369 0 0 1 -4.9431-3h-4.7369a7 7 0 0 0 0 14z"/><path d="m49.1392 31h-.8753a17.1335 17.1335 0 0 1 -4.9434 3h5.3187z"/></svg>