<svg fill="#00E6FF" id="Capa_1" enable-background="new 0 0 512 512" height="512" viewBox="0 0 512 512" width="512" xmlns="http://www.w3.org/2000/svg"><g><path d="m451.75 64v-18.88c0-24.88-20.24-45.12-45.13-45.12-24.88 0-45.12 20.24-45.12 45.12v18.88h30v-18.88c0-8.33 6.79-15.12 15.12-15.12 8.34 0 15.13 6.79 15.13 15.12v18.88h-30.25v31.38h-30v-31.38h-60.38v-18.88c0-24.88-20.24-45.12-45.12-45.12s-45.12 20.24-45.12 45.12v18.88h30v-18.88c0-8.33 6.78-15.12 15.12-15.12s15.12 6.79 15.12 15.12v18.88h-30.24v31.38h-30v-31.38h-60.38v-18.88c0-24.88-20.24-45.12-45.12-45.12-24.89 0-45.13 20.24-45.13 45.12v18.88h30v-18.88c0-8.33 6.79-15.12 15.13-15.12 8.33 0 15.12 6.79 15.12 15.12v18.88h-30.25v31.38h-30v-31.38h-60.25v63h512v-63z"/><path d="m0 191 42.4 17.59 53.4-22.16 53.4 22.16 53.4-22.16 53.39 22.16 53.4-22.16 53.4 22.16 53.4-22.16 53.4 22.16 42.41-17.59v-34h-512z"/><path d="m416.19 218.91-53.4 22.16-53.4-22.16-53.4 22.16-53.39-22.16-53.4 22.16-53.4-22.16-53.4 22.16-42.4-17.59v288.52h512v-288.52l-42.41 17.59zm-235.565 182.59c0 24.882-20.243 45.125-45.125 45.125s-45.125-20.243-45.125-45.125h30c0 8.34 6.785 15.125 15.125 15.125s15.125-6.785 15.125-15.125-6.785-15.125-15.125-15.125h-15v-30h15.01c8.335-.005 15.115-6.788 15.115-15.125 0-8.34-6.785-15.125-15.125-15.125s-15.125 6.785-15.125 15.125h-30c0-24.882 20.243-45.125 45.125-45.125s45.125 20.243 45.125 45.125c0 11.568-4.38 22.13-11.563 30.125 7.183 7.995 11.563 18.557 11.563 30.125zm75.375-45.125c24.882 0 45.125 20.243 45.125 45.125s-20.243 45.125-45.125 45.125-45.125-20.243-45.125-45.125v-60.25c0-24.882 20.243-45.125 45.125-45.125s45.125 20.243 45.125 45.125h-30c0-8.34-6.785-15.125-15.125-15.125s-15.125 6.785-15.125 15.125v17.741c4.731-1.688 9.821-2.616 15.125-2.616zm165.625-15.125h-30v-15.125h-30.25v30.25h15.125c24.882 0 45.125 20.243 45.125 45.125s-20.243 45.125-45.125 45.125-45.125-20.243-45.125-45.125h30c0 8.34 6.785 15.125 15.125 15.125s15.125-6.785 15.125-15.125-6.785-15.125-15.125-15.125h-45.125v-90.25h90.25z"/><circle cx="256" cy="401.5" r="15.125"/></g></svg>