<svg fill="#00E6FF" id="Capa_1" enable-background="new 0 0 512 512" height="512" viewBox="0 0 512 512" width="512" xmlns="http://www.w3.org/2000/svg"><g><path d="m467 30h-16v45c0 8.28-6.72 15-15 15s-15-6.72-15-15v-45h-60v45c0 8.28-6.72 15-15 15s-15-6.72-15-15v-45h-60v45c0 8.28-6.72 15-15 15s-15-6.72-15-15v-45h-60v45c0 8.28-6.72 15-15 15s-15-6.72-15-15v-45h-60v45c0 8.28-6.72 15-15 15s-15-6.72-15-15v-45h-16c-24.81 0-45 20.19-45 45v75h512v-75c0-24.81-20.19-45-45-45z"/><path d="m316 375c8.271 0 15-6.729 15-15v-60c0-8.271-6.729-15-15-15s-15 6.729-15 15v60c0 8.271 6.729 15 15 15z"/><path d="m0 467c0 24.81 20.19 45 45 45h422c24.81 0 45-20.19 45-45v-287h-512zm271-167c0-24.813 20.187-45 45-45s45 20.187 45 45v60c0 24.813-20.187 45-45 45s-45-20.187-45-45zm-75 46c-8.284 0-15-6.716-15-15s6.716-15 15-15c8.271 0 15-6.729 15-15s-6.729-15-15-15-15 6.729-15 15c0 8.284-6.716 15-15 15s-15-6.716-15-15c0-24.813 20.187-45 45-45s45 20.187 45 45c0 11.517-4.354 22.032-11.495 30 7.142 7.968 11.495 18.483 11.495 30 0 24.813-20.187 45-45 45s-45-20.187-45-45c0-8.284 6.716-15 15-15s15 6.716 15 15c0 8.271 6.729 15 15 15s15-6.729 15-15-6.729-15-15-15z"/><path d="m91 15c0-8.28-6.72-15-15-15s-15 6.72-15 15v15h30z"/><path d="m181 15c0-8.28-6.72-15-15-15s-15 6.72-15 15v15h30z"/><path d="m271 15c0-8.28-6.72-15-15-15s-15 6.72-15 15v15h30z"/><path d="m361 15c0-8.28-6.72-15-15-15s-15 6.72-15 15v15h30z"/><path d="m451 15c0-8.28-6.72-15-15-15s-15 6.72-15 15v15h30z"/></g></svg>