<?xml version="1.0"?>
<svg xmlns="http://www.w3.org/2000/svg" viewBox="0 0 48 48" width="512" height="512"><g id="Line"><path d="M34,13H32V3a1,1,0,0,0-1-1H17a1,1,0,0,0-1,1V13H14a3,3,0,0,0-1.95,5.38l9.6,8A10,10,0,0,0,9.46,33a10.14,10.14,0,0,0-.41,2c0,.33-.05.66-.05,1s0,.67.05,1a10.14,10.14,0,0,0,.41,2,10,10,0,0,0,19.08,0A10.14,10.14,0,0,0,29,37c0-.33.05-.66.05-1s0-.67-.05-1a10.14,10.14,0,0,0-.41-2,10,10,0,0,0-2.4-4,9.73,9.73,0,0,0-1.48-1.24L35.9,18.38A3,3,0,0,0,34,13ZM22,34a1,1,0,0,1-2,0v-.15a.85.85,0,0,0-.85-.85h-.3a.85.85,0,0,0-.85.85.86.86,0,0,0,.47.77l2,1A2.84,2.84,0,0,1,20,40.85V41a1,1,0,0,1-2,0v-.15a2.84,2.84,0,0,1-2-2.7V38a1,1,0,0,1,2,0v.15a.85.85,0,0,0,.85.85h.3a.85.85,0,0,0,.85-.85.86.86,0,0,0-.47-.77l-2-1A2.84,2.84,0,0,1,18,31.15V31a1,1,0,0,1,2,0v.15a2.84,2.84,0,0,1,2,2.7Z"/><path d="M37,43a1,1,0,0,0-1-1H29.39a11,11,0,0,1-1.46,2H36A1,1,0,0,0,37,43Z"/><path d="M36,38H30.83a11.08,11.08,0,0,1-.52,2H36a1,1,0,0,0,0-2Z"/></g></svg>
