<svg fill="#00E6FF" id="Layer_1" enable-background="new 0 0 512 512" height="512" viewBox="0 0 512 512" width="512" xmlns="http://www.w3.org/2000/svg"><path clip-rule="evenodd" d="m422.052 64.069c11.878 0 21.565 9.687 21.565 21.565v396.801c0 11.877-9.687 21.565-21.565 21.565h-332.104c-11.878 0-21.565-9.688-21.565-21.565v-396.801c0-11.877 9.687-21.565 21.565-21.565h67.026v23.035c0 11.585 9.415 21 21 21h156.052c11.585 0 21-9.415 21-21v-23.035zm-244.078-28.034c-2.754 0-5 2.246-5 5v46.07c0 2.754 2.246 5 5 5h156.052c2.754 0 5-2.246 5-5v-46.07c0-2.754-2.246-5-5-5h-42.389c-3.879-16.085-18.362-28.035-35.637-28.035s-31.758 11.95-35.637 28.035zm-49.972 304.306c-2.754 0-5 2.246-5 5v59.055c0 2.754 2.246 5 5 5h25.995c2.754 0 5-2.246 5-5v-59.055c0-2.754-2.246-5-5-5zm242.998-187.912c-9.539 0-17.271 7.733-17.271 17.271 0 1.521.198 2.996.567 4.401l-54.004 49.13c-1.857-.683-3.864-1.055-5.958-1.055-4.137 0-7.933 1.455-10.907 3.88l-48.538-20.872c-.662-8.934-8.12-15.976-17.223-15.976-9.539 0-17.271 7.733-17.271 17.271 0 .998.086 1.976.248 2.928l-52.25 39.673c-2.242-1.064-4.748-1.659-7.394-1.659-9.539 0-17.271 7.733-17.271 17.271 0 9.539 7.733 17.271 17.271 17.271s17.271-7.733 17.271-17.271c0-.998-.086-1.976-.248-2.928l52.25-39.673c2.241 1.064 4.748 1.659 7.394 1.659 4.137 0 7.933-1.455 10.907-3.88l48.538 20.872c.662 8.934 8.12 15.976 17.223 15.976 9.539 0 17.271-7.733 17.271-17.271 0-1.521-.198-2.996-.567-4.401l54.004-49.13c1.857.683 3.864 1.055 5.957 1.055 9.538 0 17.271-7.733 17.271-17.271.001-9.538-7.731-17.271-17.27-17.271zm-12.998 79.966c-2.754 0-5 2.246-5 5v167.001c0 2.754 2.246 5 5 5h25.996c2.754 0 5-2.246 5-5v-167.001c0-2.754-2.246-5-5-5zm-76.667 71.766c-2.754 0-5 2.246-5 5v95.236c0 2.754 2.246 5 5 5h25.996c2.754 0 5-2.246 5-5 0-33.745 0-61.491 0-95.236 0-2.754-2.246-5-5-5-8.665 0-17.331 0-25.996 0zm-76.667-24.549c-2.754 0-5 2.246-5 5v119.785c0 2.754 2.246 5 5 5h25.995c2.754 0 5-2.246 5-5v-119.785c0-2.754-2.246-5-5-5z" fill-rule="evenodd"/></svg>