<svg id="Capa_1" enable-background="new 0 0 512 512" height="512" viewBox="0 0 512 512" width="512" xmlns="http://www.w3.org/2000/svg"><g><path d="m301.125 363.906h36.275v30.25h-36.275z"/><path d="m436.75 0h-361.5c-8.284 0-15 6.716-15 15v482c0 8.284 6.716 15 15 15h361.5c8.284 0 15-6.716 15-15v-482c0-8.284-6.716-15-15-15zm-271.125 92.906c8.409 0 14.636 6.873 15 15 .363 8.101-7.154 15-15 15-8.409 0-14.636-6.873-15-15-.363-8.1 7.154-15 15-15zm0 60.25c8.409 0 14.636 6.873 15 15 .363 8.101-7.154 15-15 15-8.409 0-14.636-6.873-15-15-.363-8.1 7.154-15 15-15zm30.125 155.688c24.882 0 45.125 20.243 45.125 45.125 0 19.624-12.596 36.354-30.125 42.552v17.698c0 8.284-6.716 15-15 15s-15-6.716-15-15v-15.125h-15.125c-8.284 0-15-6.716-15-15s6.716-15 15-15h30.125c8.34 0 15.125-6.785 15.125-15.125s-6.785-15.125-15.125-15.125c-24.882 0-45.125-20.243-45.125-45.125 0-19.624 12.596-36.354 30.125-42.552v-17.698c0-8.284 6.716-15 15-15s15 6.716 15 15v15.125h15.125c8.284 0 15 6.716 15 15s-6.716 15-15 15h-30.125c-8.34 0-15.125 6.785-15.125 15.125s6.785 15.125 15.125 15.125zm171.65 100.312c0 8.284-6.716 15-15 15h-66.275c-8.284 0-15-6.716-15-15v-60.25c0-8.284 6.716-15 15-15h66.275c8.284 0 15 6.716 15 15zm-15-105.5h-66.275c-8.284 0-15-6.716-15-15s6.716-15 15-15h66.275c8.284 0 15 6.716 15 15s-6.715 15-15 15zm0-60.25h-66.275c-8.284 0-15-6.716-15-15s6.716-15 15-15h66.275c8.284 0 15 6.716 15 15s-6.715 15-15 15zm0-60.25h-126.525c-8.284 0-15-6.716-15-15s6.716-15 15-15h126.525c8.284 0 15 6.716 15 15s-6.715 15-15 15zm0-60.25h-126.525c-8.284 0-15-6.716-15-15s6.716-15 15-15h126.525c8.284 0 15 6.716 15 15s-6.715 15-15 15z"/></g></svg>