<svg
  xmlns="http://www.w3.org/2000/svg"
  width="682.667"
  height="682.667"
  fill="#00E6FF"
  version="1.1"
  viewBox="0 0 682.667 682.667"
  xmlSpace="preserve"
>
  <defs>
    <clipPath clipPathUnits="userSpaceOnUse">
      <path d="M0 512h512V0H0z"></path>
    </clipPath>
  </defs>
  <g transform="matrix(1.33333 0 0 -1.33333 0 682.667)">
    <g>
      <g>
        <g transform="translate(.728 19.272)">
          <path d="M0 0a15 15 0 0118.544-18.544L158.55 21.458 40.002 140.006z"></path>
        </g>
        <g transform="translate(.728 19.272)">
          <path d="M0 0a15 15 0 0118.544-18.544L158.55 21.458 40.002 140.006z"></path>
        </g>
        <g transform="translate(498.687 435.05)">
          <path d="M0 0l-63.635 63.636c-8.483 8.483-19.78 13.157-31.81 13.162h-.021c-12.027 0-23.318-4.668-31.794-13.144l-31.836-31.835L-31.817-95.46.019-63.625C8.5-55.144 13.167-43.845 13.162-31.81 13.157-19.779 8.482-8.482 0 0"></path>
        </g>
        <g transform="translate(498.687 435.05)">
          <path d="M0 0l-63.635 63.636c-8.483 8.483-19.78 13.157-31.81 13.162h-.021c-12.027 0-23.318-4.668-31.794-13.144l-31.836-31.835L-31.817-95.46.019-63.625C8.5-55.144 13.167-43.845 13.162-31.81 13.157-19.779 8.482-8.482 0 0z"></path>
        </g>
        <g transform="translate(57.578 184.856)">
          <path d="M0 0l127.279-127.279 260.8 260.8L260.8 260.8z"></path>
        </g>
        <g transform="translate(57.578 184.856)">
          <path d="M0 0l127.279-127.279 260.8 260.8L260.8 260.8z"></path>
        </g>
      </g>
    </g>
  </g>
</svg>
